<svg id="Layer_1" data-name="Layer 1" xmlns="http://www.w3.org/2000/svg" viewBox="456.3 464.0 167.5 152.0">
  <defs>
    
  </defs>
  <g>
    <path fill="#0C3051" d="M481.64,560.43v-15.37c0-1.39-1.04-2.55-2.41-2.72h-.11v-2.49h8.22v2.48h0c-1.37.17-2.39,1.34-2.39,2.72v15.39c0,6.53-2.74,10.36-9.7,10.36-6.14,0-10.31-2.31-10.31-10.14v-15.59c0-1.4-1.06-2.58-2.45-2.72h-.03v-2.48h10.75v2.48h-.14c-1.4.15-2.47,1.33-2.47,2.74v15.1c0,4.22.91,7.4,5.48,7.4,4.05,0,5.57-2.44,5.57-7.14Z"></path>
    <path fill="#0C3051" d="M499.09,539.84c6.31,0,10.31,1.7,10.31,7.27,0,3.96-2,6.27-5.75,7.01v.09c4.35.7,7.05,3.26,7.05,7.48,0,6.92-5,8.62-11.88,8.62h-9.44v-2.48l.42-.04c1.39-.15,2.45-1.32,2.45-2.72v-19.97c0-1.42-1.08-2.6-2.49-2.73l-.38-.03v-2.48h9.7ZM497.92,553.25h.65c3.79,0,5.18-2.05,5.18-5.57s-1.44-5.09-5-5.09h-.83v10.66ZM497.92,567.56h1.09c4.09,0,5.74-1.74,5.74-5.92,0-3.96-1.7-5.7-5.44-5.7h-1.39v11.62Z"></path>
    <path fill="#0C3051" d="M526.03,555.07c0,7.75,1.83,12.84,6.92,12.84,1.87,0,3.61-1.13,4.4-2.65v-5.74l-3.26-.35v-2.48h11.18v2.48l-2.44.3v10.97h-2.52c-.26-.65-.57-1.31-1.35-1.31-1.31,0-3.05,1.65-6.92,1.65-7.31,0-12.14-4.66-12.14-15.54s5.66-15.88,12.71-15.88c3.57,0,4.96,1.39,6.14,1.39.57,0,.83-.3,1.09-1h2.18l.3,9.57h-2.48c-1.13-5.14-3-7.18-6.7-7.18-4.83,0-7.09,4.26-7.09,12.92Z"></path>
    <path fill="#0C3051" d="M559.97,539.36c7.75,0,12.1,5.7,12.1,15.41s-4.05,16.01-12.4,16.01-12.36-5.61-12.36-15.62,4.87-15.8,12.66-15.8ZM559.8,542.02c-5.35,0-6.35,5.44-6.35,13.1,0,7.05,1,12.97,6.31,12.97s6.18-5.48,6.18-13.14-1-12.92-6.14-12.92Z"></path>
    <path fill="#0C3051" d="M586.17,539.84v2.44l-.77.09c-1.52.17-2.67,1.46-2.67,2.99v22.21h1.87c4.92,0,7.09-1.35,8.01-7.96h2.35l-.35,10.71h-20.19v-2.44h0c1.49-.2,2.61-1.47,2.61-2.98v-19.58c0-1.51-1.12-2.78-2.61-2.98h0v-2.48h11.75Z"></path>
    <path fill="#0C3051" d="M617.24,539.84l.3,9.14h-2.44c-.96-5.31-2.52-6.48-7.05-6.48h0c-1.49,0-2.7,1.21-2.7,2.7v8.66h1.22c2.65,0,3.61-1.31,4.09-5h1.96v12.88h-2.04c-.57-4.44-1.31-5.27-4.26-5.27h-.96v8.34c0,1.54,1.18,2.81,2.71,2.94l1.43.12v2.44h-12.45v-2.44h0c1.49-.17,2.61-1.43,2.61-2.93v-19.72c0-1.48-1.1-2.73-2.56-2.93h-.05v-2.44h20.19Z"></path>
  </g>
  <g>
    <path fill="#0C3051" d="M506.95,470.19v10.4l2.32,1.07c.78.36,1.28,1.15,1.28,2.02v20.48c0,7.86,3.06,15.25,8.62,20.81,2.94,2.94,6.39,5.18,10.25,6.66,3.37,1.3,6.93,1.96,10.57,1.96,2.63,0,5.23-.35,7.74-1.04l3.21-1.08c.96-.39,1.84-.79,2.67-1.23,9.76-5.09,15.83-15.09,15.83-26.11v-20.47c0-.87.5-1.66,1.28-2.02l2.32-1.07v-10.4h-66.11ZM569.05,478.03c-2.2,1.02-3.6,3.23-3.6,5.66v20.15c0,9.46-5.16,17.69-12.82,22.08.04-.28.07-.56.07-.84,0-1.76-.73-3.78-1.52-5.34-.02-.04-.07-.1-.11-.08l-.86.49c-.54.25-1.06.51-1.65.67l.94-.57c.42-.26.84-.48,1.21-.8.13-.11.29-.26.33-.43-.04-.36-.14-.7-.26-1.04-.09-.25-.51.05-.77.27-.23.19-.46.31-.72.45-1.17.61-2.37,1.09-3.63,1.51l-1.98.56-2.41.47c-.07.01-.09.06-.08.13l.16,1.16c.03.21.32.26.58.24l1.55-.14s.06,0,.05,0c0,.02-.04.01-.09.03-.68.22-1.35.4-2.06.44h-.12s-.05,0-.05,0c-.02,0-.03,0-.04-.02l-.03-.03-.02-.03-.03-.03-.03-.03-.02-.03s-.02-.02-.03-.03c-.11-.19-.26-.28-.48-.22h-.06s-.06,0-.06,0h-.06s-2.18-.08-2.18-.08c-.08-.02-.09-.2-.09-.27l-.04-.8-.02-.06-.61-.03c-.05,0-.12,0-.12.06l-.03.24v.67s.01.07,0,.09c-.02,0-.04.01-.08,0-1.08-.13-2.13-.34-3.16-.66-.3-.09-.56-.22-.84-.37-.03-.02-.04,0-.05.03l-.19.9c-.18.53-.46,1.02-.73,1.51l-.02.04-.02.04c-.27.55-.5,1.11-.7,1.69v.05c-.18.54-.2,1.1-.06,1.65.04.14.09.28.14.41-.22-.08-.44-.14-.65-.22-3.36-1.28-6.38-3.25-8.87-5.75-4.6-4.6-7.45-10.96-7.45-18v-20.15c0-2.42-1.4-4.64-3.6-5.66v-3.84h58.11v3.84Z"></path>
    <path fill="#0C3051" d="M520.36,493.41c.31-.12.52-.38.61-.71.14-.49.22-.99.23-1.51,0-.37.02-.94.27-1l1.49-.37c.18-.04.31-.13.47-.21l3.95-.84c-.13.24-.2.48-.13.74.04.14.17.26.31.23.14-.03.21-.14.31-.22.01.11-.04.21-.09.3-.13.24-.16.51-.05.77l.22.54c.22.53.86,1.43,1.45,1.4l.25.35.61.9c-.31.09-.66.16-.64.46l.03.68c-1.64.47-3.02,1.24-3.61,2.91l-.07.11c-.28,1.05-.2,2.14.21,3.14l.45.99.95,1.88,1.82,3.67,1.28,2.65c.22-1.13.46-2.17.76-3.26l.74-2.27c0-.07.07-.01.02.03l-.21.95-.65,3.76-.24,1.86-.46,3.22c-.12.86-.17,1.7-.08,2.56.15,1.42.91,2.66,2.27,3.16.67.25,1.35.4,2.06.52,1.3.22,2.59.31,3.91.27,1.26-.04,3.23-.32,4.45-.64,1.04-.28,2.07-.55,3.07-.96l1.93-.79,1.45-.71c.7-.34,1-1.09.82-1.82-.17-.69-.67-1.47-1.09-2.06-.02-.02-.04-.05-.06-.04-.01,0,0,.04-.01.06l-.22.63c-.24.55-.56,1.07-.98,1.49l-.46.46c-.05.05-.07.08-.09.06,0,0,.02-.06.03-.07.56-.75.95-1.57,1.2-2.47.17-.65.25-1.36.02-2-.13-.36-.3-.69-.52-1l-.03-.04-.04-.06s-.04-.02-.05.02c-.08.49-.2.94-.37,1.39-.34.87-.75,1.69-1.27,2.47l-.03.07s-.05-.01-.02-.03l.59-1.53.45-1.74.23-1.59c.07-.68.06-1.33-.01-2.02l-.85-2.92-.57-1.97-.46-1.25s.03-.04.05,0l.44.68.74,1.34,1.34-.74.75-.39c.58-.3,1.18-.51,1.83-.62l.83-.14c.57-.19.92-.89,1.08-1.49,1.52-.2,2.99-.54,4.45-1l.88-.3c.2-.1.36-.27.47-.46.21-.34.28-.73.32-1.13l.07-.72.32-2.78-.02-1.28-.39-3.8-.24-2.28c-.01-.11.24-.08.36-.23.33-.41-.22-.92-.22-1.35,0-1.01.02-2.56-.43-3.41-.27-.51-.7-.89-1.24-1.1-.24-.09-.46-.11-.71-.04-.3-.24-.64-.18-.99-.07-.08-.07-.19-.13-.3-.11l-.45.05c-.15-.2-.38-.29-.63-.27-.44.04-.79.3-.94.72-.03.09-.09.12-.19.14-.32.04-.62.12-.92.24-.12.05-.23.02-.34-.02-.31-.12-.63.01-.79.3-.09.17-.13.34-.17.53l-.19.8-1.84.4c-.26.04-.48.13-.71.27l-3.03.68-8.63,1.94-.12-.43-.42-1.03-.44-.81c-.26-.47-.61-.84-1.07-1.13-.37-.23-.73-.45-1.17-.56-.48-.12-.96-.13-1.46-.08-.29.02-.56.05-.84.02-.31-.14-.66-.09-.93.13-.19.16-.37.29-.58.41-.67.39-1.28.88-1.77,1.49-.26.33-.41.7-.42,1.12-.02.41.01.79.07,1.2l.22,1.51-4.09.89c-.18.01-.34-.04-.53,0l-1.27.28c-.5.11-1.12.34-1.44.71-.3.35-.5.76-.66,1.18l-.29.77c-.1.27-.1.57,0,.84.16.42.76.71,1.11.57ZM529.7,492.11c-.03-.06-.1-.1-.14-.12-.13-.07-.3.19-.49.01-.44-.42-.83-.97-.88-1.6l.22.31c.17.21.36.41.63.5l-.47-1.6c.66.09,1.3.16,1.97.17.71,0,.61-.71.92-.69.06,0,.14.07.16.15l.36,1.33c.03.1.01.23-.08.29-.17.1-.41,0-.48.06-.03.02-.06.07-.05.13.03.17.22.27.38.22.18-.05.32-.02.49.05.11.05.16.09.16.23,0,.17-.06.37-.26.41-.05.01-.16-.04-.21,0-.23.19-.43.4-.62.63l.03.12c.1-.02.22-.05.31-.12.24-.19.51-.25.81-.31.38-.08.75-.2,1.17-.15-.19.08-.35.17-.51.28-.15.1-.3.17-.47.23l-.61.23c.09.12.18.22.3.27.15.06.58-.19.95.1.14.1.17.28.13.45-.03.14-.16.28-.34.33-.38.11-.76.21-1.16.24-.21.01-.46-.09-.63-.19-.63-.38-1.22-1.31-1.59-1.97ZM528.69,497.36c.17-.47.45-.87.75-1.26.26-.37.58-.64.97-.87.4-.19.8-.36,1.27-.38-.68.35-1.28.77-1.85,1.27-.43.38-.76.8-1.15,1.24ZM549.34,495.65c-.34-.14-.72-.12-1.08-.02l-.94.34c-.33.12-.59.34-.86.57.22-.39.56-.77.98-.98l-1.45-.41-.96-.1c-.21-.02-.41-.03-.61-.12-.64-.24-1.31-.29-1.98-.15-.52.09-1,.2-1.55.22l1.71-1.03,1.87-1.05c.59-.33,1.09-.75,1.6-1.2l.91-.93.89-.86,2.68-2.4c.47-.42,1-.73,1.58-.99l.71-.28c.28-.15.48-.42.61-.7l.23-.73c.24.29.5.51.78.73l.53.43c.12.1.23.22.26.38l.11.53c.08.4.38.36.39.64l.07,2.01c-.06,1.32-.26,2.6-.56,3.88l-.47,2.25-1.84.13-1.64-.11c-.45.02-.88.08-1.31.2l-.66-.26ZM556.67,495.01l-.16,1.19c-.11.83-.36,1.61-1.19,1.87-.42.13-.83.23-1.27.28l-1.77.22-.81.05c-.22.9-.23,1.77-.22,2.72-.42-1.52-.34-2.87.16-4.37.09-.27.25-.48.41-.71l1.08.04,1.49-.07c.17,0,.33.07.47.14.1.28.26.52.52.65-.1-.4-.13-.79-.09-1.2.09-.79.25-1.54.44-2.31.42-1.75.65-3.48.56-5.29l.22,1.27.24,2.68c.05.96.06,1.9-.07,2.84ZM558.28,482.96c.1.18.12.4.13.62l.03,1.08v.76s-.32,0-.32,0c-.5.05-1,.13-1.48.34.75-.05,1.78-.13,2.2.46-.17.02-.3-.04-.44-.07-.75-.19-2.04.06-2.62.65-.14-.47,0-.82-.4-1.22l-.73-.73c-.23-.23-.38-.64-.15-.9.28-.31,1.01-.06,1.44.17l.55.36c.11-.18.05-.39.04-.59.84.03,1.43-.13,1.74-.93ZM556.72,481.1c.38-.16.95.27,1.13.67-.26-.09-.47-.17-.71-.14-.16.02-.27.14-.27.31-.03.35-.09.75-.33.99-.06.06-.16.07-.22,0-.1-.12-.15-.26-.17-.42-.04-.56.04-1.19.57-1.41ZM555.7,481.01c.18-.04.34-.08.55-.02-.26.26-.41.56-.44.92-.02.2-.07.39-.03.59l.15.65c.03.15-.1.25-.24.26-.09,0-.23,0-.26-.12-.21-.79-.28-1.64.26-2.27ZM555.31,480.95c-.37.56-.45,1.23-.29,1.87.02.09.05.21-.03.29-.06.07-.18.03-.25,0-.07-.03-.11-.11-.14-.2-.14-.45-.16-.93-.04-1.39.09-.35.4-.7.75-.58ZM553.84,480.87c.14-.14.38-.18.56-.11.07.03.11.12.13.18-.22.12-.35.34-.36.59-.01.29-.32.37-.4.33-.25-.12-.24-.69.06-.99ZM537.59,488.28c0-.33-.03-.64-.14-.94-.07-.2-.18-.35-.37-.48l2.76-.57,8.44-1.77c.36.01.68-.01,1.01-.11l.96-.17c-.97.73-1.96,1.36-3.04,1.89l-2.51,1.23-2,.98c-.78.38-1.5.81-2.19,1.34l-1.52,1.17-.89.75c-.35.29-.75.49-1.16.72l-.41-2.06c.9-.21,1.05-1.12,1.05-1.98ZM536.56,493.03c.91-.44,1.73-.96,2.49-1.63,1.08-.97,2.93-2.21,4.24-2.86l2.72-1.34,2.34-1.2,1.54-.93,1.16-.81c-.11-.04-.19-.02-.3-.03l.23-.95.29-1.08c.03-.13.07-.24.18-.32.08-.07.27-.09.3.02.03.1-.07.22-.1.33.08.03.15-.03.21-.08.38-.3.82-.49,1.32-.54,0,.23.11.4.31.49l-.27.73c-.14.49-.26.97-.5,1.43-.15.28-.4.56-.69.69l-.83.24-1.24.71-.78.48-1.15.72-1.69,1.05-1.99,1.19-1.26.88c-.38.27-.65.62-.95.97l-.65.75c-.14.16-.33.25-.53.32-.5.17-.95.41-1.34.77l.86-.05c.05.66-.18,1.29-.85,1.34-.4.03-.77.15-1.11.37l-1.9,1.25-1.65,1c-.06.03-.14-.1-.14-.16l-.16-1.08v-.84c-.15.28-.24.58-.31.89-.12.54-.2,1.07-.22,1.63-.02.8.24,1.93.78,2.56.25-.2.45-.43.64-.68l.99-1.24-.62,1.35c-.15.32-.34.62-.58.88-.11.12-.26.2-.4.27l-1.5.78-1.56.95-1.63,1.38c.25-.41.57-.75.88-1.1.55-.61,1.16-1.14,1.87-1.54l1.37-.79c-.61-.8-.81-1.81-.72-2.78,0-.66.12-1.28.3-1.91.16-.57.38-1.08.71-1.57l1.89-.91ZM528.89,487.31c.88-.71,1.94-1.11,3.07-1.22,1.14-.11,2.26-.02,3.38.24-.15.26-.32.45-.5.65-.17.15-.36.28-.58.32-.3.06-.59.02-.88-.06-1.25-.36-2.37-.45-3.62,0-.5.19-.93.48-1.28.88-.33.3-.57.64-.85.98.26-.7.69-1.33,1.26-1.79Z"></path>
  </g>
  <g>
    <path fill="#DD8910" d="M518.2,583.67c-.03.18-.05.37-.05.55v.55c0,.64.11,1.17.34,1.6.23.43.53.77.89,1.03.37.26.78.44,1.26.55.47.11.95.16,1.44.16.82,0,1.66-.21,2.51-.62.85-.41,1.63-.97,2.33-1.69.7-.72,1.27-1.55,1.71-2.49.44-.94.66-1.93.66-2.97,0-1.28-.35-2.14-1.05-2.58-.7-.44-1.64-.66-2.83-.66-1.37,0-2.88.33-4.52.98-1.64.66-3.31,1.56-5,2.72-1.69,1.16-3.32,2.53-4.89,4.11-1.57,1.58-2.97,3.31-4.2,5.16-1.23,1.86-2.22,3.81-2.95,5.85-.73,2.04-1.1,4.11-1.1,6.21,0,.85.11,1.71.32,2.56.21.85.55,1.62,1.01,2.31.46.69,1.05,1.23,1.78,1.65.73.41,1.61.62,2.65.62,1.49,0,2.92-.34,4.27-1.03,1.36-.69,2.54-1.58,3.56-2.67,1.02-1.1,1.83-2.32,2.45-3.68.61-1.35.91-2.7.91-4.04,0-1.22-.36-2.15-1.07-2.79-.72-.64-1.68-.96-2.9-.96l-.04-.55c1.92,0,3.34.38,4.27,1.14.93.76,1.39,2.06,1.39,3.88,0,1.07-.28,2.25-.85,3.56-.56,1.31-1.39,2.54-2.49,3.68s-2.46,2.1-4.09,2.86c-1.63.76-3.5,1.14-5.6,1.14-1.58,0-2.92-.27-4-.82-1.08-.55-1.96-1.23-2.63-2.06-.67-.82-1.15-1.71-1.44-2.67-.29-.96-.43-1.85-.43-2.67,0-1.92.41-3.88,1.23-5.87.82-2,1.91-3.92,3.27-5.78,1.36-1.86,2.92-3.6,4.68-5.23,1.77-1.63,3.59-3.05,5.46-4.25,1.87-1.2,3.75-2.15,5.62-2.86,1.87-.7,3.59-1.05,5.14-1.05,1.92,0,3.35.4,4.3,1.19.94.79,1.42,1.95,1.42,3.47,0,1.07-.25,2.06-.75,2.97s-1.17,1.7-2.01,2.35c-.84.66-1.79,1.17-2.86,1.55-1.07.38-2.16.57-3.29.57-1.19,0-2.21-.28-3.06-.85-.85-.56-1.31-1.53-1.37-2.9v-.59c0-.24.01-.46.05-.64h.55Z"></path>
    <path fill="#DD8910" d="M544.52,577.27c-2.71,4.11-5.07,7.67-7.08,10.67-2.01,3-3.73,5.57-5.16,7.7-1.43,2.13-2.61,3.89-3.52,5.28-.91,1.39-1.63,2.52-2.15,3.4-.52.88-.88,1.58-1.07,2.1-.2.52-.3.96-.3,1.33,0,.76.33,1.14,1.01,1.14.76,0,1.65-.31,2.67-.94,1.02-.62,2.12-1.48,3.29-2.56,1.17-1.08,2.37-2.35,3.59-3.79,1.22-1.45,2.41-2.99,3.56-4.64l.5.18c-1.1,1.55-2.25,3.05-3.47,4.5-1.22,1.45-2.39,2.7-3.52,3.77-1.49,1.4-2.78,2.42-3.86,3.06-1.08.64-2.06.96-2.95.96-.95,0-1.62-.21-2.03-.64s-.62-.99-.62-1.69c0-.64.11-1.3.34-1.99.23-.69.62-1.51,1.17-2.47.55-.96,1.27-2.12,2.17-3.5s2.01-3.05,3.34-5.05c1.33-2,2.89-4.37,4.68-7.13,1.8-2.76,3.87-5.99,6.21-9.71h3.2Z"></path>
    <path fill="#DD8910" d="M544.48,593.36c-1.19,1.62-2.33,3.15-3.43,4.62-1.1,1.46-2.07,2.8-2.92,4.02-.85,1.22-1.53,2.28-2.03,3.18-.5.9-.75,1.61-.75,2.12,0,.49.12.85.37,1.07.24.23.56.34.96.34.58,0,1.21-.18,1.9-.55.68-.37,1.39-.84,2.1-1.42.72-.58,1.42-1.22,2.1-1.92.69-.7,1.33-1.39,1.92-2.08s1.11-1.32,1.55-1.9c.44-.58.77-1.04.98-1.37l4.02-6.12h3.15c-1.65,2.25-3.04,4.17-4.18,5.73-1.14,1.57-2.07,2.9-2.79,4-.72,1.1-1.23,1.99-1.53,2.67s-.46,1.29-.46,1.81c0,.37.11.68.32.94.21.26.52.39.91.39.61,0,1.31-.22,2.1-.66.79-.44,1.61-1.02,2.47-1.74.85-.72,1.7-1.52,2.54-2.42.84-.9,1.63-1.79,2.38-2.67.75-.88,1.42-1.71,2.03-2.49s1.08-1.41,1.42-1.9l.46.14c-.37.52-.85,1.18-1.46,1.99-.61.81-1.29,1.66-2.06,2.56-.76.9-1.57,1.81-2.42,2.74-.85.93-1.73,1.76-2.63,2.49-.9.73-1.78,1.33-2.65,1.81-.87.47-1.68.71-2.44.71-.85,0-1.53-.24-2.03-.71-.5-.47-.75-1.1-.75-1.9,0-.61.1-1.2.3-1.76.2-.56.34-.92.43-1.07l-.09-.09c-.64.73-1.31,1.43-2.01,2.1-.7.67-1.4,1.26-2.1,1.76-.7.5-1.41.91-2.12,1.21s-1.42.46-2.12.46c-.98,0-1.68-.22-2.1-.66-.43-.44-.64-.97-.64-1.58,0-.76.21-1.58.62-2.47.41-.88.98-1.87,1.71-2.97.73-1.1,1.61-2.33,2.63-3.7,1.02-1.37,2.14-2.94,3.36-4.71h3.02Z"></path>
    <path fill="#DD8910" d="M574.73,577.46c-2.62,4.05-4.88,7.53-6.79,10.44-1.9,2.91-3.52,5.38-4.84,7.4-1.33,2.03-2.39,3.68-3.2,4.96-.81,1.28-1.42,2.33-1.85,3.15-.43.82-.72,1.48-.87,1.99-.15.5-.23.98-.23,1.44,0,.61.18,1.1.55,1.49.37.38.84.57,1.42.57,1.1,0,2.28-.46,3.54-1.37s2.43-2.03,3.5-3.34c1.07-1.31,1.96-2.67,2.67-4.07.71-1.4,1.07-2.6,1.07-3.61,0-.33-.08-.66-.23-.98s-.23-.66-.23-1.03c0-.43.1-.78.3-1.07.2-.29.53-.43.98-.43.52,0,.92.27,1.21.82.29.55.43,1.26.43,2.15,0,.73-.06,1.4-.18,2.01.27.37.73.72,1.37,1.05.64.34,1.36.5,2.15.5.88,0,1.7-.23,2.45-.69.75-.46,1.38-1.02,1.9-1.69l.32.32c-.49.61-1.14,1.18-1.97,1.71-.82.53-1.74.8-2.74.8-.7,0-1.36-.13-1.97-.39-.61-.26-1.17-.6-1.69-1.03-.4,1.25-1.06,2.52-1.99,3.82-.93,1.3-2.01,2.47-3.24,3.52-1.23,1.05-2.54,1.9-3.93,2.56-1.39.65-2.74.98-4.04.98-1.07,0-1.97-.31-2.72-.94-.75-.62-1.12-1.52-1.12-2.67,0-.49.09-1.03.27-1.62.18-.59.5-1.33.96-2.22.46-.88,1.09-1.98,1.9-3.29.81-1.31,1.83-2.93,3.08-4.87,1.25-1.93,2.76-4.23,4.52-6.9,1.77-2.67,3.84-5.8,6.21-9.39l3.02-.09Z"></path>
  </g>
</svg>